<?xml version="1.0" encoding="utf-8"?>
<!-- Generator: Adobe Illustrator 25.2.2, SVG Export Plug-In . SVG Version: 6.00 Build 0)  -->
<svg version="1.1" id="Layer_1" xmlns="http://www.w3.org/2000/svg" xmlns:xlink="http://www.w3.org/1999/xlink" x="0px" y="0px"
	 viewBox="0 0 198.4 61.96" style="enable-background:new 0 0 198.4 61.96;" xml:space="preserve">
<style type="text/css">
	.st0{fill:none;}
	.st1{enable-background:new    ;}
	.st2{fill:#0073B6;}
	.st3{fill:#FC0604;}
</style>
<rect x="10.29" y="4.26" class="st0" width="283.72" height="76.74"/>
<g>
	<g class="st1">
		<path class="st2" d="M40.31,11.72c0,0.75-0.03,1.38-0.1,1.91c-0.06,0.53-0.16,0.95-0.29,1.27c-0.13,0.32-0.29,0.56-0.48,0.71
			c-0.19,0.15-0.4,0.23-0.64,0.23H26.31v40.22c0,0.26-0.08,0.49-0.25,0.69c-0.17,0.21-0.44,0.37-0.83,0.5
			c-0.39,0.13-0.91,0.23-1.56,0.31s-1.47,0.12-2.45,0.12c-0.98,0-1.79-0.04-2.45-0.12s-1.18-0.18-1.56-0.31
			c-0.39-0.13-0.66-0.3-0.83-0.5c-0.17-0.21-0.25-0.44-0.25-0.69V15.85H3.63c-0.26,0-0.48-0.08-0.66-0.23
			c-0.18-0.15-0.33-0.39-0.46-0.71c-0.13-0.32-0.23-0.75-0.29-1.27c-0.06-0.53-0.1-1.16-0.1-1.91c0-0.77,0.03-1.43,0.1-1.97
			c0.06-0.54,0.16-0.97,0.29-1.29C2.64,8.14,2.8,7.91,2.98,7.77c0.18-0.14,0.4-0.21,0.66-0.21H38.8c0.23,0,0.44,0.07,0.64,0.21
			c0.19,0.14,0.35,0.37,0.48,0.69c0.13,0.32,0.22,0.75,0.29,1.29C40.27,10.29,40.31,10.95,40.31,11.72z"/>
		<path class="st2" d="M70.58,37.94c0,1.18-0.26,2.06-0.79,2.62c-0.53,0.57-1.25,0.85-2.18,0.85H46.67c0,1.47,0.17,2.8,0.52,3.99
			s0.9,2.21,1.66,3.05c0.76,0.84,1.74,1.47,2.93,1.91c1.2,0.44,2.63,0.66,4.3,0.66c1.7,0,3.19-0.12,4.47-0.37
			c1.29-0.24,2.4-0.51,3.34-0.81c0.94-0.3,1.72-0.57,2.33-0.81c0.62-0.24,1.12-0.37,1.5-0.37c0.23,0,0.42,0.04,0.58,0.13
			c0.15,0.09,0.28,0.25,0.39,0.48c0.1,0.23,0.17,0.56,0.21,0.98c0.04,0.42,0.06,0.96,0.06,1.6c0,0.57-0.01,1.05-0.04,1.45
			c-0.03,0.4-0.06,0.74-0.12,1.02c-0.05,0.28-0.13,0.52-0.23,0.71c-0.1,0.19-0.24,0.38-0.4,0.56c-0.17,0.18-0.62,0.42-1.37,0.73
			c-0.75,0.31-1.7,0.61-2.85,0.91c-1.16,0.3-2.48,0.55-3.97,0.77c-1.49,0.22-3.08,0.33-4.78,0.33c-3.06,0-5.74-0.39-8.04-1.16
			c-2.3-0.77-4.22-1.94-5.76-3.51s-2.69-3.55-3.45-5.94c-0.76-2.39-1.14-5.19-1.14-8.41c0-3.06,0.4-5.82,1.2-8.27
			c0.8-2.46,1.95-4.54,3.47-6.25c1.52-1.71,3.36-3.01,5.53-3.91c2.17-0.9,4.62-1.35,7.35-1.35c2.88,0,5.34,0.42,7.38,1.27
			c2.04,0.85,3.72,2.02,5.03,3.53s2.28,3.28,2.89,5.34s0.93,4.29,0.93,6.71V37.94z M61.17,35.16c0.08-2.72-0.47-4.87-1.64-6.42
			c-1.17-1.56-2.98-2.33-5.42-2.33c-1.23,0-2.31,0.23-3.22,0.69c-0.91,0.46-1.67,1.09-2.28,1.87c-0.6,0.78-1.07,1.71-1.39,2.78
			c-0.32,1.07-0.51,2.2-0.56,3.41H61.17z"/>
		<path class="st2" d="M111.41,56.14c0,0.26-0.08,0.48-0.23,0.67c-0.15,0.19-0.41,0.35-0.77,0.48s-0.85,0.22-1.48,0.29
			c-0.63,0.06-1.41,0.1-2.33,0.1c-0.95,0-1.74-0.03-2.37-0.1c-0.63-0.06-1.12-0.16-1.48-0.29s-0.62-0.29-0.77-0.48
			c-0.15-0.19-0.23-0.42-0.23-0.67V36.51c0-1.67-0.12-2.98-0.37-3.93c-0.24-0.95-0.6-1.77-1.06-2.45s-1.06-1.21-1.79-1.58
			c-0.73-0.37-1.59-0.56-2.56-0.56c-1.23,0-2.48,0.45-3.74,1.35c-1.26,0.9-2.57,2.21-3.93,3.93v22.87c0,0.26-0.08,0.48-0.23,0.67
			c-0.15,0.19-0.42,0.35-0.79,0.48c-0.37,0.13-0.87,0.22-1.48,0.29c-0.62,0.06-1.4,0.1-2.35,0.1c-0.95,0-1.74-0.03-2.35-0.1
			c-0.62-0.06-1.11-0.16-1.48-0.29c-0.37-0.13-0.64-0.29-0.79-0.48c-0.15-0.19-0.23-0.42-0.23-0.67v-34.4
			c0-0.26,0.06-0.48,0.19-0.67c0.13-0.19,0.36-0.35,0.69-0.48c0.33-0.13,0.76-0.22,1.29-0.29c0.53-0.06,1.19-0.1,1.99-0.1
			c0.82,0,1.5,0.03,2.04,0.1c0.54,0.06,0.96,0.16,1.25,0.29c0.3,0.13,0.51,0.29,0.64,0.48c0.13,0.19,0.19,0.42,0.19,0.67v3.97
			c1.9-2.06,3.84-3.6,5.8-4.63c1.97-1.03,4.02-1.54,6.15-1.54c2.34,0,4.31,0.39,5.92,1.16s2.9,1.82,3.89,3.14
			c0.99,1.32,1.7,2.87,2.14,4.65c0.44,1.77,0.66,3.91,0.66,6.4V56.14z"/>
	</g>
	<g class="st1">
		<path class="st3" d="M157.91,53.48c0,0.75-0.03,1.37-0.1,1.87c-0.06,0.5-0.16,0.91-0.29,1.21c-0.13,0.31-0.29,0.53-0.48,0.67
			c-0.19,0.14-0.4,0.21-0.64,0.21h-25.06c-0.85,0-1.56-0.25-2.14-0.75c-0.58-0.5-0.87-1.32-0.87-2.45v-43.5
			c0-1.13,0.29-1.95,0.87-2.45c0.58-0.5,1.29-0.75,2.14-0.75h24.91c0.23,0,0.44,0.06,0.62,0.19c0.18,0.13,0.33,0.35,0.46,0.67
			c0.13,0.32,0.22,0.73,0.29,1.23c0.06,0.5,0.1,1.14,0.1,1.91c0,0.72-0.03,1.33-0.1,1.83s-0.16,0.91-0.29,1.21
			c-0.13,0.31-0.28,0.53-0.46,0.67c-0.18,0.14-0.39,0.21-0.62,0.21h-17.82v12.19h15.08c0.23,0,0.44,0.07,0.64,0.21
			c0.19,0.14,0.35,0.36,0.48,0.66c0.13,0.3,0.22,0.69,0.29,1.2c0.06,0.5,0.1,1.11,0.1,1.83c0,0.75-0.03,1.36-0.1,1.85
			c-0.06,0.49-0.16,0.88-0.29,1.18c-0.13,0.3-0.29,0.51-0.48,0.64c-0.19,0.13-0.4,0.19-0.64,0.19h-15.08v14.07h17.97
			c0.23,0,0.44,0.07,0.64,0.21c0.19,0.14,0.35,0.37,0.48,0.67c0.13,0.31,0.22,0.71,0.29,1.21
			C157.88,52.11,157.91,52.73,157.91,53.48z"/>
		<path class="st3" d="M196.17,55.45c0.21,0.44,0.3,0.8,0.29,1.08c-0.01,0.28-0.2,0.51-0.56,0.69c-0.36,0.18-0.91,0.3-1.66,0.37
			c-0.75,0.06-1.74,0.1-2.97,0.1c-1.16,0-2.09-0.02-2.8-0.06c-0.71-0.04-1.26-0.12-1.66-0.23c-0.4-0.12-0.69-0.26-0.89-0.42
			c-0.19-0.17-0.34-0.38-0.44-0.64l-6.36-12.22l-6.36,12.22c-0.1,0.26-0.24,0.47-0.42,0.64c-0.18,0.17-0.46,0.31-0.83,0.42
			c-0.37,0.12-0.89,0.19-1.56,0.23c-0.67,0.04-1.54,0.06-2.62,0.06c-1.13,0-2.03-0.03-2.7-0.1c-0.67-0.06-1.16-0.19-1.47-0.37
			c-0.31-0.18-0.47-0.41-0.48-0.69c-0.01-0.28,0.1-0.64,0.33-1.08l9.52-16.93l-8.79-15.89c-0.23-0.46-0.35-0.85-0.37-1.18
			c-0.01-0.32,0.15-0.57,0.48-0.75c0.33-0.18,0.87-0.31,1.6-0.39s1.73-0.12,2.99-0.12c1.13,0,2.04,0.02,2.72,0.06
			c0.68,0.04,1.21,0.1,1.6,0.17s0.67,0.2,0.85,0.37c0.18,0.17,0.33,0.38,0.46,0.64l6.13,11.49l6.09-11.49
			c0.08-0.21,0.19-0.39,0.35-0.54c0.15-0.15,0.4-0.28,0.73-0.39s0.79-0.18,1.37-0.23s1.37-0.08,2.37-0.08
			c1.13,0,2.04,0.03,2.72,0.08c0.68,0.05,1.17,0.17,1.47,0.35c0.3,0.18,0.44,0.43,0.42,0.75c-0.01,0.32-0.16,0.74-0.44,1.25
			l-8.56,15.62L196.17,55.45z"/>
	</g>
</g>
</svg>
